<svg viewBox="0 0 96 96" xmlns="http://www.w3.org/2000/svg" xmlns:xlink="http://www.w3.org/1999/xlink" id="Icons_ClipboardChecked_LTR" overflow="hidden"><path d="M73 82 23 82 23 20 34 20 34 26 62 26 62 20 73 20ZM48 12C49.6569 12 51 13.3431 51 15 51 16.6569 49.6569 18 48 18 46.3431 18 45 16.6569 45 15 44.9727 13.3704 46.2716 12.0273 47.9012 12 47.9341 11.9994 47.9671 11.9994 48 12ZM75 14 58 14 58 12C58 9.79086 56.2091 8 54 8L42 8C39.7909 8 38 9.79086 38 12L38 14 21 14C18.7909 14 17 15.7909 17 18L17 84C17 86.2091 18.7909 88 21 88L75 88C77.2091 88 79 86.2091 79 84L79 18C79 15.7909 77.2091 14 75 14Z"/><rect x="50" y="34" width="17" height="4"/><rect x="50" y="46" width="17" height="4"/><rect x="50" y="58" width="17" height="4"/><rect x="50" y="70" width="17" height="4"/><path d="M29.707 35.8 31.8 33.707 34.4 36.307 41 29.707 43.093 31.8 34.4 40.493 29.707 35.8Z"/><path d="M29.707 47.8 31.8 45.707 34.4 48.307 41 41.707 43.093 43.8 34.4 52.493 29.707 47.8Z"/><path d="M29.707 59.8 31.8 57.707 34.4 60.307 41 53.707 43.093 55.8 34.4 64.493 29.707 59.8Z"/><path d="M29.707 71.8 31.8 69.707 34.4 72.307 41 65.707 43.093 67.8 34.4 76.493 29.707 71.8Z"/></svg>